<svg xmlns="http://www.w3.org/2000/svg" viewBox="0 0 560 620" role="img" font-family="-apple-system, 'Helvetica Neue', Arial, sans-serif">
<title>Tactical zone network diagram</title>
<desc>Seven connected tactical zones arranged as a network: Forest Edge leads to the Kill Zone and on to the Main Floor, which branches to the Catwalk, the Office, and the Generator Room; the Office and Generator Room connect, and both lead to the Research Facility.</desc>
<style>.zt{font-size:15px;font-weight:500;fill:#2c2c2a;}.zd{font-size:12px;font-weight:400;fill:#5f5e5a;}</style>
<line x1="249" y1="72" x2="249" y2="182" stroke="#a8a6a0" stroke-width="1.5"/>
<line x1="249" y1="182" x2="188" y2="300" stroke="#a8a6a0" stroke-width="1.5"/>
<line x1="188" y1="300" x2="430" y2="300" stroke="#a8a6a0" stroke-width="1.5"/>
<line x1="188" y1="300" x2="129" y2="418" stroke="#a8a6a0" stroke-width="1.5"/>
<line x1="188" y1="300" x2="347" y2="418" stroke="#a8a6a0" stroke-width="1.5"/>
<line x1="129" y1="418" x2="347" y2="418" stroke="#a8a6a0" stroke-width="1.5"/>
<line x1="129" y1="418" x2="249" y2="536" stroke="#a8a6a0" stroke-width="1.5"/>
<line x1="347" y1="418" x2="249" y2="536" stroke="#a8a6a0" stroke-width="1.5"/>
<g>
<rect x="160.0" y="40.0" width="178" height="64" rx="4" fill="#f0efe9" stroke="#a8a6a0" stroke-width="1"/>
<rect x="160.0" y="40.0" width="6" height="64" rx="3" fill="#2E6B3A"/>
<rect x="163.0" y="40.0" width="3" height="64" fill="#2E6B3A"/>
<text class="zt" x="254" y="66" text-anchor="middle" dominant-baseline="central">Forest Edge</text>
<text class="zd" x="254" y="85" text-anchor="middle" dominant-baseline="central">Total cover · deep snow</text>
</g>
<g>
<rect x="160.0" y="150.0" width="178" height="64" rx="4" fill="#f0efe9" stroke="#a8a6a0" stroke-width="1"/>
<rect x="160.0" y="150.0" width="6" height="64" rx="3" fill="#a8a6a0"/>
<rect x="163.0" y="150.0" width="3" height="64" fill="#a8a6a0"/>
<text class="zt" x="254" y="176" text-anchor="middle" dominant-baseline="central">Kill Zone</text>
<text class="zd" x="254" y="195" text-anchor="middle" dominant-baseline="central">Open field · snow (difficult)</text>
</g>
<g>
<rect x="99.0" y="268.0" width="178" height="64" rx="4" fill="#f0efe9" stroke="#a8a6a0" stroke-width="1"/>
<rect x="99.0" y="268.0" width="6" height="64" rx="3" fill="#a8a6a0"/>
<rect x="102.0" y="268.0" width="3" height="64" fill="#a8a6a0"/>
<text class="zt" x="193" y="294" text-anchor="middle" dominant-baseline="central">Main Floor</text>
<text class="zd" x="193" y="313" text-anchor="middle" dominant-baseline="central">Crates &amp; forklifts · open</text>
</g>
<g>
<rect x="341.0" y="268.0" width="178" height="64" rx="4" fill="#f0efe9" stroke="#a8a6a0" stroke-width="1"/>
<rect x="341.0" y="268.0" width="6" height="64" rx="3" fill="#a8a6a0"/>
<rect x="344.0" y="268.0" width="3" height="64" fill="#a8a6a0"/>
<text class="zt" x="435" y="294" text-anchor="middle" dominant-baseline="central">Catwalk</text>
<text class="zd" x="435" y="313" text-anchor="middle" dominant-baseline="central">Rusted walkways · overwatch</text>
</g>
<g>
<rect x="40.0" y="386.0" width="178" height="64" rx="4" fill="#f0efe9" stroke="#a8a6a0" stroke-width="1"/>
<rect x="40.0" y="386.0" width="6" height="64" rx="3" fill="#2E6B3A"/>
<rect x="43.0" y="386.0" width="3" height="64" fill="#2E6B3A"/>
<text class="zt" x="134" y="412" text-anchor="middle" dominant-baseline="central">Office</text>
<text class="zd" x="134" y="431" text-anchor="middle" dominant-baseline="central">Windows · solid cover</text>
</g>
<g>
<rect x="258.0" y="386.0" width="178" height="64" rx="4" fill="#f0efe9" stroke="#a8a6a0" stroke-width="1"/>
<rect x="258.0" y="386.0" width="6" height="64" rx="3" fill="#D97A6C"/>
<rect x="261.0" y="386.0" width="3" height="64" fill="#D97A6C"/>
<text class="zt" x="352" y="412" text-anchor="middle" dominant-baseline="central">Generator Room</text>
<text class="zd" x="352" y="431" text-anchor="middle" dominant-baseline="central">Behind a locked door</text>
</g>
<g>
<rect x="160.0" y="504.0" width="178" height="64" rx="4" fill="#f0efe9" stroke="#a8a6a0" stroke-width="1"/>
<rect x="160.0" y="504.0" width="6" height="64" rx="3" fill="#D97A6C"/>
<rect x="163.0" y="504.0" width="3" height="64" fill="#D97A6C"/>
<text class="zt" x="254" y="530" text-anchor="middle" dominant-baseline="central">Research Facility</text>
<text class="zd" x="254" y="549" text-anchor="middle" dominant-baseline="central">Volatile chemicals</text>
</g>
</svg>